<?xml version="1.0" encoding="UTF-8" standalone="no"?>
<!-- Created with Inkscape (http://www.inkscape.org/) -->

<svg
   version="1.1"
   id="svg1"
   width="102.33949"
   height="136.62798"
   viewBox="0 0 102.33949 136.62798"
   xmlns="http://www.w3.org/2000/svg"
   xmlns:svg="http://www.w3.org/2000/svg">
  <defs
     id="defs1" />
  <g
     id="g1"
     transform="translate(-5.4763104,-13.534138)">
    <path
       style="fill:#f9f9f9"
       d="M 40.450118,148.68663 C 26.796271,143.70955 15.449749,128.13812 12.89499,110.87129 12.464066,107.9588 10.956087,104.23529 9.196494,101.73893 5.9060939,97.070815 4.7955619,91.103415 5.8761778,83.897348 c 0.5440444,-3.627949 1.6789704,-5.540013 5.7655642,-9.713524 2.798499,-2.85802 6.583497,-8.166095 8.411106,-11.795724 3.863667,-7.673232 10.487897,-16.021422 16.596093,-20.915236 5.05453,-4.04963 15.374059,-9.182176 18.464002,-9.1833 4.203199,-0.0015 5.331787,-1.056783 5.331787,-4.985333 0,-2.131664 -0.651985,-4.311666 -1.5,-5.015456 -2.274394,-1.887579 -1.899457,-6.71585 0.626493,-8.067697 4.991115,-2.671164 9.288537,2.999061 5.715553,7.541374 -1.349217,1.715251 -1.867022,3.672833 -1.653272,6.25026 0.284474,3.430222 0.61208,3.802908 3.811226,4.335663 4.022847,0.669928 9.037647,3.125123 13.839908,6.775879 6.084272,4.625361 13.953315,18.509829 15.756019,27.800576 0.383173,1.974795 1.496381,3.540604 3.006283,4.228562 2.98464,1.359891 3.03497,2.377462 0.18045,3.648255 -2.768435,1.23247 -3.556435,4.05072 -3.68298,13.172028 -0.112722,8.12498 1.020161,12.058125 4.17246,14.485935 l 2.16943,1.67084 -2.47078,1.13129 c -1.794917,0.82184 -2.976487,2.74177 -4.319464,7.01871 -4.402273,14.01979 -16.241536,28.3243 -28.144683,34.00515 -8.463617,4.03931 -20.196677,5.06368 -27.501255,2.40103 z m 14.439156,-7.37878 c 14.514616,-4.99376 28.614165,-17.46262 37.400489,-33.07492 2.738573,-4.86613 3.004339,-5.98257 2.140847,-8.993385 -1.36145,-4.7471 -1.236316,-17.985715 0.221525,-23.436419 0.947246,-3.541647 0.942793,-5.53783 -0.02067,-9.264351 C 91.181085,53.193218 81.041108,39.334267 73.177994,37.21695 63.840387,34.702594 51.212805,40.510699 38.43542,53.196931 c -4.759469,4.725514 -9.431254,9.716844 -10.381747,11.091844 -0.950492,1.375 -0.09082,-0.61762 1.910389,-4.428044 4.443981,-8.461624 9.423704,-14.675043 15.820466,-19.739888 5.756243,-4.557694 5.054895,-4.900078 -1.884247,-0.919851 -10.810167,6.200611 -22.072745,21.347246 -26.37612,35.472292 -7.7663151,25.491516 -0.951439,56.984036 14.310976,66.133076 5.293223,3.17301 14.694795,3.37753 23.054137,0.50149 z M 36.07245,138.97188 c -2.628412,-1.12253 -2.246344,-1.23232 4.5,-1.29305 4.054754,-0.0365 9.17228,-0.64532 11.37228,-1.35292 7.07919,-2.27695 17.84966,-8.10533 23.5,-12.7169 5.200047,-4.24406 5.1475,-4.15779 -0.963499,1.58179 -12.077082,11.34305 -29.489073,17.59048 -38.408781,13.78108 z m 11.578056,-27.25153 c -3.304331,-2.31445 -1.709957,-3.54019 2.381323,-1.83074 3.153552,1.31764 3.886621,1.30932 6.662729,-0.0756 3.858853,-1.92505 5.920006,-0.45805 2.611936,1.85901 -2.933655,2.05481 -8.756134,2.07844 -11.655988,0.0473 z M 25.288933,100.0338 c -3.822312,-3.231115 -4.84469,-5.856365 -4.840465,-12.429284 0.0044,-6.78711 2.314429,-11.394671 6.90238,-13.767192 4.548914,-2.352335 49.048117,-2.27937 53.054049,0.08699 4.499821,2.658112 6.039833,6.321797 6.039833,14.368751 0,6.85002 -0.163339,7.35905 -3.4,10.59571 l -3.4,3.399995 -25.85,-0.005 c -25.331599,-0.005 -25.90326,-0.05 -28.505797,-2.25 z m 14.327056,-6.400015 c 2.119567,-1.91818 2.532685,-9.241066 0.628741,-11.14501 -1.901469,-1.901469 -6.591576,-1.457962 -7.764816,0.734259 -1.561692,2.918048 -1.243202,8.178401 0.619804,10.237001 2.053585,2.26919 4.139388,2.3248 6.516271,0.17375 z m 34,0 c 2.03115,-1.83816 2.448836,-7.317835 0.793557,-10.410751 -0.661818,-1.236619 -2.09183,-1.934259 -3.964816,-1.934259 -3.39977,0 -5,2.274093 -5,7.10552 0,3.49273 2.381276,6.89448 4.826247,6.89448 0.833949,0 2.339205,-0.74474 3.345012,-1.65499 z M 47.237926,49.473762 c 5.793115,-5.106297 13.997198,-8.53183 21.206804,-8.854689 l 6.5,-0.291082 -7.5,1.783416 c -7.668091,1.823386 -12.429918,3.755723 -19.5,7.91305 l -4,2.352068 z M 13.323497,80.869457 c 0.613762,-3.255625 0.924927,-6.110322 0.691477,-6.343771 -1.09518,-1.095181 -2.764025,8.25049 -3.082648,17.263089 -0.344319,9.739435 -0.332311,9.804575 0.460854,2.5 0.447912,-4.125 1.316555,-10.163693 1.930317,-13.419318 z m 86.232779,18.169318 c -1.674091,-4.48977 -2.134644,-11.367074 -1.119345,-16.714863 1.198969,-6.315219 2.043029,-7.476118 4.799589,-6.60122 5.63188,1.78749 6.26338,21.158453 0.80851,24.800768 -2.00185,1.33666 -3.63862,0.79529 -4.488754,-1.484685 z"
       id="path1" />
  </g>
</svg>
