<?xml version="1.0" encoding="UTF-8" standalone="no"?>
<!-- Created with Inkscape (http://www.inkscape.org/) -->

<svg
   version="1.1"
   id="svg1"
   width="102.33949"
   height="136.62798"
   viewBox="0 0 102.33949 136.62798"
   xmlns="http://www.w3.org/2000/svg"
   xmlns:svg="http://www.w3.org/2000/svg">
  <defs
     id="defs1" />
  <g
     id="g1"
     transform="translate(-5.0315801,-25.245362)">
    <path
       style="fill:#000000"
       d="M 40.005388,160.39786 C 26.351541,155.42078 15.005019,139.84935 12.45026,122.58252 c -0.430924,-2.91249 -1.938903,-6.636 -3.6984961,-9.13236 -3.2904001,-4.66812 -4.4009321,-10.63552 -3.3203162,-17.841587 0.5440444,-3.627949 1.6789704,-5.540013 5.7655643,-9.713524 2.798499,-2.85802 6.583497,-8.166095 8.411106,-11.795724 3.863667,-7.673232 10.487897,-16.021422 16.596093,-20.915236 5.05453,-4.04963 15.374059,-9.182176 18.464002,-9.1833 C 58.871412,43.99926 60,42.944006 60,39.015456 60,36.883792 59.348015,34.70379 58.5,34 c -2.274394,-1.887579 -1.899457,-6.71585 0.626493,-8.067697 4.991115,-2.671164 9.288537,2.999061 5.715553,7.541374 -1.349217,1.715251 -1.867022,3.672833 -1.653272,6.25026 0.284474,3.430222 0.61208,3.802908 3.811226,4.335663 4.022847,0.669928 9.037647,3.125123 13.839908,6.775879 6.084272,4.625361 13.953315,18.509829 15.756019,27.800576 0.383173,1.974795 1.496381,3.540604 3.006284,4.228562 2.984639,1.359891 3.034969,2.377462 0.180451,3.648255 -2.768437,1.23247 -3.556437,4.05072 -3.682982,13.172028 -0.112722,8.12498 1.020161,12.05813 4.17246,14.48594 2.16943,1.67084 2.16943,1.67084 -0.301353,2.80213 -1.794914,0.82184 -2.976484,2.74177 -4.319461,7.01871 -4.402273,14.01979 -16.241536,28.3243 -28.144683,34.00515 -8.463617,4.03931 -20.196677,5.06368 -27.501255,2.40103 z m 14.439156,-7.37878 c 14.514616,-4.99376 28.614165,-17.46262 37.400489,-33.07492 2.738573,-4.86613 3.004339,-5.98257 2.140847,-8.99339 -1.36145,-4.7471 -1.236316,-17.985715 0.221525,-23.436419 C 95.154651,83.972704 95.150198,81.976521 94.186737,78.25 90.736355,64.904443 80.596378,51.045492 72.733264,48.928175 63.395657,46.413819 50.768075,52.221924 37.99069,64.908156 33.231221,69.63367 28.559436,74.625 27.608943,76 c -0.950492,1.375 -0.09082,-0.61762 1.910389,-4.428044 4.443981,-8.461624 9.423704,-14.675043 15.820466,-19.739888 5.756243,-4.557694 5.054895,-4.900078 -1.884247,-0.919851 -10.810167,6.200611 -22.072745,21.347246 -26.37612,35.472292 -7.7663152,25.491521 -0.951439,56.984041 14.310976,66.133081 5.293223,3.17301 14.694795,3.37753 23.054137,0.50149 z M 35.62772,150.68311 c -2.628412,-1.12253 -2.246344,-1.23232 4.5,-1.29305 4.054754,-0.0365 9.17228,-0.64532 11.37228,-1.35292 7.07919,-2.27695 17.84966,-8.10533 23.5,-12.7169 5.200047,-4.24406 5.1475,-4.15779 -0.963499,1.58179 -12.077082,11.34305 -29.489073,17.59048 -38.408781,13.78108 z m 11.578056,-27.25153 c -3.304331,-2.31445 -1.709957,-3.54019 2.381323,-1.83074 3.153552,1.31764 3.886621,1.30932 6.662729,-0.0756 3.858853,-1.92505 5.920006,-0.45805 2.611936,1.85901 -2.933655,2.05481 -8.756134,2.07844 -11.655988,0.0473 z M 24.844203,111.74503 c -3.822312,-3.23112 -4.84469,-5.85637 -4.840465,-12.429289 0.0044,-6.78711 2.314429,-11.394671 6.90238,-13.767192 4.548914,-2.352335 49.048117,-2.27937 53.054049,0.08699 C 84.459988,88.293651 86,91.957336 86,100.00429 c 0,6.85002 -0.163339,7.35905 -3.4,10.59571 -3.4,3.4 -3.4,3.4 -29.25,3.39503 -25.331599,-0.005 -25.90326,-0.05 -28.505797,-2.25 z m 14.327056,-6.40002 C 41.290826,103.42683 41.703944,96.103944 39.8,94.2 c -1.901469,-1.901469 -6.591576,-1.457962 -7.764816,0.734259 -1.561692,2.918048 -1.243202,8.178401 0.619804,10.237001 2.053585,2.26919 4.139388,2.3248 6.516271,0.17375 z m 34,0 c 2.03115,-1.83816 2.448836,-7.317835 0.793557,-10.410751 C 73.302998,93.69764 71.872986,93 70,93 c -3.39977,0 -5,2.274093 -5,7.10552 0,3.49273 2.381276,6.89448 4.826247,6.89448 0.833949,0 2.339205,-0.74474 3.345012,-1.65499 z M 46.793196,61.184987 C 52.586311,56.07869 60.790394,52.653157 68,52.330298 c 6.5,-0.291082 6.5,-0.291082 -1,1.492334 -7.668091,1.823386 -12.429918,3.755723 -19.5,7.91305 -4,2.352068 -4,2.352068 -0.706804,-0.550695 z M 12.878767,92.580682 c 0.613762,-3.255625 0.924927,-6.110322 0.691477,-6.343771 -1.09518,-1.095181 -2.764025,8.25049 -3.082648,17.263089 -0.344319,9.73944 -0.332311,9.80458 0.460854,2.5 0.447912,-4.125 1.316555,-10.163693 1.930317,-13.419318 z M 99.111546,110.75 c -1.674091,-4.48977 -2.134644,-11.367074 -1.119345,-16.714863 1.198969,-6.315219 2.043029,-7.476118 4.799589,-6.60122 5.63188,1.78749 6.26338,21.158453 0.80851,24.800773 -2.00185,1.33666 -3.638625,0.79529 -4.488754,-1.48469 z"
       id="path1" />
  </g>
</svg>
